<svg width="99" height="24" viewBox="0 0 99 24" fill="none" xmlns="http://www.w3.org/2000/svg">
<path d="M87.6595 2.56576V22.8371H85.6646V2.56576H75.6094V0.731689H97.7148V2.56576H87.6595Z" fill="white"/>
<path d="M97.7142 2.56566V0.731589H75.6088V2.56566H85.664V22.837H87.659V2.56566H97.7142ZM98.0437 2.89515H87.9884V23.1665H85.3345V2.89515H75.2793V0.4021H98.0437V2.89515Z" fill="white"/>
<path d="M71.2808 3.99773C70.8625 3.79395 70.3798 3.57944 69.8328 3.3542C69.2858 3.11824 68.6584 2.90909 67.9505 2.72675C67.2533 2.54442 66.465 2.39426 65.5855 2.27628C64.706 2.14757 63.73 2.08322 62.6574 2.08322C61.3596 2.08322 60.2013 2.1583 59.1823 2.30846C58.1741 2.45861 57.3161 2.69458 56.6082 3.01634C55.911 3.32738 55.3747 3.72423 54.9994 4.20688C54.6347 4.68953 54.4523 5.26335 54.4523 5.92833C54.4523 6.48606 54.624 6.97408 54.9672 7.39237C55.3211 7.81067 55.793 8.1807 56.383 8.50247C56.9836 8.82424 57.6807 9.11919 58.4744 9.38733C59.2789 9.64474 60.1262 9.89143 61.0164 10.1274C61.9173 10.3526 62.8397 10.5832 63.7836 10.8192C64.7382 11.0552 65.6606 11.3126 66.5508 11.5914C67.4517 11.8596 68.2991 12.1652 69.0927 12.5085C69.8972 12.841 70.5943 13.2324 71.1842 13.6829C71.7849 14.1334 72.2568 14.6482 72.6 15.2274C72.9539 15.8066 73.1309 16.4769 73.1309 17.2384C73.1309 18.0643 72.9754 18.7883 72.6644 19.4104C72.3533 20.0217 71.9297 20.5526 71.3934 21.0031C70.8678 21.4429 70.2457 21.8129 69.5271 22.1132C68.8192 22.4028 68.0577 22.6334 67.2426 22.805C66.4382 22.9766 65.6016 23.0946 64.7328 23.159C63.8748 23.234 63.0274 23.2716 62.1908 23.2716C60.271 23.2716 58.5281 23.1321 56.9621 22.8533C55.4069 22.5744 53.9214 22.1936 52.5057 21.711V19.2495C53.9643 20.1183 55.5035 20.7135 57.123 21.0353C58.7533 21.3571 60.464 21.5179 62.2552 21.5179C63.5208 21.5179 64.6899 21.4429 65.7625 21.2927C66.835 21.1425 67.7628 20.9066 68.5457 20.5848C69.3287 20.2523 69.9347 19.8233 70.3637 19.2977C70.8035 18.7722 71.0233 18.1287 71.0233 17.3671C71.0233 16.7558 70.8464 16.2195 70.4924 15.7583C70.1492 15.2971 69.6773 14.8949 69.0767 14.5517C68.4867 14.1977 67.7896 13.8867 66.9852 13.6186C66.1915 13.3504 65.3495 13.1037 64.4593 12.8785C63.5691 12.6425 62.6467 12.4173 61.6921 12.2028C60.7483 11.9776 59.8312 11.7362 58.941 11.4788C58.0508 11.2214 57.2035 10.9318 56.399 10.61C55.6053 10.2883 54.9082 9.91288 54.3076 9.48386C53.7176 9.04411 53.2457 8.54001 52.8918 7.97155C52.5486 7.4031 52.377 6.74348 52.377 5.99269C52.377 5.25262 52.5164 4.59836 52.7953 4.02991C53.0741 3.45073 53.4549 2.95199 53.9375 2.53369C54.4309 2.1154 55.0047 1.76682 55.659 1.48795C56.3132 1.19836 57.0104 0.973124 57.7505 0.81224C58.5012 0.640631 59.2789 0.517287 60.0833 0.442208C60.8877 0.367129 61.6814 0.32959 62.4643 0.32959C63.3224 0.32959 64.1322 0.367129 64.8937 0.442208C65.6659 0.517287 66.406 0.61918 67.1139 0.747887C67.8325 0.865868 68.5297 1.0053 69.2054 1.16618C69.8918 1.32707 70.5836 1.49868 71.2808 1.68101V3.99773Z" fill="white"/>
<path d="M73.1303 17.2383C73.1303 16.4768 72.9534 15.8065 72.5994 15.2273C72.2562 14.6481 71.7843 14.1333 71.1836 13.6828C70.5937 13.2323 69.8966 12.8409 69.0922 12.5084C68.2985 12.1651 67.4511 11.8595 66.5502 11.5913C65.66 11.3125 64.7376 11.0551 63.783 10.8191L61.0158 10.1273C60.1256 9.89133 59.2783 9.64464 58.4738 9.38723C57.6802 9.11909 56.983 8.82413 56.3824 8.50237C55.7925 8.1806 55.3205 7.81057 54.9666 7.39227C54.6234 6.97398 54.4518 6.48596 54.4518 5.92823C54.4518 5.26325 54.6341 4.68943 54.9988 4.20678C55.3742 3.72413 55.9104 3.32728 56.6076 3.01624C57.3155 2.69448 58.1735 2.45851 59.1817 2.30836C60.2007 2.1582 61.359 2.08312 62.6568 2.08312C63.7294 2.08312 64.7054 2.14747 65.5849 2.27618C66.4644 2.39416 67.2527 2.54432 67.9499 2.72665C68.6578 2.90899 69.2852 3.11814 69.8322 3.3541C70.3792 3.57933 70.8619 3.79385 71.2802 3.99763V1.68091C70.583 1.49858 69.8912 1.32697 69.2048 1.16608C68.5291 1.0052 67.8319 0.865767 67.1133 0.747786C66.4054 0.61908 65.6653 0.517187 64.8931 0.442108C64.1316 0.367029 63.3218 0.329489 62.4638 0.329489C61.6808 0.329489 60.8871 0.367029 60.0827 0.442108C59.2783 0.517187 58.5007 0.640531 57.7499 0.81214C57.0098 0.973023 56.3126 1.19826 55.6584 1.48785C55.0041 1.76671 54.4303 2.1153 53.9369 2.53359C53.4543 2.95189 53.0735 3.45063 52.7947 4.02981C52.5158 4.59826 52.3764 5.25252 52.3764 5.99259C52.3764 6.74338 52.548 7.403 52.8912 7.97145C53.2451 8.53991 53.7171 9.04401 54.307 9.48376C54.9076 9.91278 55.6048 10.2882 56.3985 10.6099C57.2029 10.9317 58.0502 11.2213 58.9404 11.4787C59.8306 11.7361 60.7477 11.9775 61.6915 12.2027C62.6461 12.4172 63.5685 12.6424 64.4587 12.8784C65.3489 13.1036 66.1909 13.3503 66.9846 13.6185C67.789 13.8866 68.4862 14.1976 69.0761 14.5516C69.6767 14.8948 70.1486 15.297 70.4918 15.7582C70.8458 16.2194 71.0228 16.7557 71.0228 17.367C71.0228 18.1286 70.8029 18.7721 70.3631 19.2976C69.9341 19.8232 69.3281 20.2522 68.5452 20.5847C67.7622 20.9065 66.8344 21.1424 65.7619 21.2926C64.6893 21.4428 63.5202 21.5178 62.2546 21.5178V21.1884C63.5074 21.1884 64.661 21.114 65.7162 20.9663C66.7678 20.819 67.6669 20.5891 68.4181 20.2806C69.1632 19.964 69.7205 19.5638 70.1079 19.0893L70.1091 19.0877L70.1104 19.0862C70.495 18.6266 70.6933 18.0604 70.6933 17.367C70.6933 16.8242 70.5378 16.3594 70.2304 15.9588L70.229 15.9569L70.2275 15.9549C69.9164 15.5368 69.4817 15.1628 68.9126 14.8376L68.9095 14.8359L68.9066 14.8341C68.3414 14.495 67.667 14.1932 66.8804 13.931L66.8791 13.9306C66.0943 13.6655 65.2606 13.4212 64.3779 13.1978L64.3761 13.1974L64.3743 13.1969C63.4883 12.9621 62.57 12.7378 61.6192 12.5241L61.6171 12.5237L61.6151 12.5232C60.6664 12.2968 59.7443 12.0542 58.8489 11.7953C57.9489 11.535 57.0912 11.242 56.2761 10.9159L56.2753 10.9156L56.2746 10.9153C55.4607 10.5853 54.7401 10.1981 54.1154 9.75185L54.1127 9.74992L54.11 9.74793C53.4904 9.28603 52.9892 8.75225 52.6115 8.14559L52.6103 8.14366L52.6091 8.14173C52.231 7.51543 52.0469 6.79537 52.0469 5.99259C52.0469 5.21068 52.1944 4.50534 52.4988 3.88469C52.797 3.26619 53.2049 2.73203 53.7212 2.28461L53.7239 2.28229C54.2448 1.84062 54.8475 1.47529 55.5292 1.18475C56.1615 0.905191 56.8312 0.684429 57.5378 0.52197L57.6799 0.49018C58.4444 0.315601 59.2351 0.190279 60.052 0.114034C60.8663 0.0380353 61.6702 0 62.4638 0C63.3311 0 64.1516 0.0380061 64.9249 0.114227L64.925 0.114163C65.7046 0.189961 66.4528 0.292898 67.1695 0.423123C67.8945 0.542208 68.5983 0.682978 69.2811 0.845539H69.281C69.9699 1.00701 70.6641 1.17923 71.3636 1.36217L71.6097 1.42652V4.52469L71.1359 4.29385C70.7252 4.09376 70.249 3.88202 69.7068 3.65875L69.7042 3.65772L69.7017 3.65662C69.1734 3.42873 68.5626 3.22471 67.8677 3.04572L67.8671 3.04559L67.8665 3.04539C67.1849 2.86714 66.4101 2.71935 65.5411 2.60277L65.5391 2.60245L65.5372 2.60219C64.6763 2.47621 63.7165 2.41261 62.6568 2.41261C61.3714 2.41261 60.2296 2.48692 59.2302 2.63418L59.2303 2.63424C58.2436 2.7812 57.4168 3.01035 56.744 3.31619L56.7429 3.31664L56.7418 3.31716C56.0839 3.61071 55.5965 3.97639 55.2616 4.40544L55.2324 4.44502C54.9345 4.85664 54.7812 5.3462 54.7812 5.92823C54.7812 6.41139 54.9275 6.82428 55.2197 7.18126C55.542 7.5616 55.9789 7.90693 56.54 8.21297C57.1209 8.52402 57.8 8.81178 58.5793 9.07505C59.3759 9.32986 60.2156 9.57428 61.0983 9.80829L61.1168 9.81293C61.1186 9.81336 61.1204 9.81377 61.1221 9.81421C61.1239 9.81465 61.1256 9.81512 61.1274 9.81556C61.1291 9.816 61.1309 9.81641 61.1327 9.81685C61.1344 9.81729 61.1362 9.81776 61.1379 9.8182C61.1591 9.82348 61.1274 9.81557 61.1485 9.82084C61.1509 9.82143 61.1568 9.82289 61.1591 9.82348C61.1609 9.82392 61.1626 9.82439 61.1644 9.82483C61.1662 9.82527 61.1679 9.82568 61.1697 9.82612C61.1714 9.82656 61.1732 9.82703 61.175 9.82747C61.1767 9.82791 61.1785 9.82832 61.1802 9.82876C61.192 9.83169 61.1791 9.82846 61.1908 9.83139C61.1926 9.83183 61.1944 9.83231 61.1961 9.83275C61.1979 9.83319 61.1996 9.83359 61.2014 9.83403C61.2179 9.83815 61.1955 9.83263 61.212 9.83674C61.219 9.8385 61.2155 9.83761 61.2226 9.83937L61.2331 9.84201C61.2349 9.84245 61.2366 9.84286 61.2384 9.8433C61.2402 9.84374 61.242 9.84421 61.2437 9.84465L61.2543 9.84729C61.2561 9.84773 61.2578 9.8482 61.2596 9.84864C61.2613 9.84908 61.2632 9.84949 61.2649 9.84993C61.2766 9.85286 61.2637 9.84963 61.2755 9.85257C61.2772 9.85301 61.279 9.85348 61.2808 9.85392C61.2826 9.85436 61.2843 9.85477 61.2861 9.85521L61.2966 9.85791C61.2984 9.85835 61.3002 9.85875 61.302 9.85919C61.3037 9.85964 61.3055 9.86011 61.3073 9.86055C61.3285 9.86585 61.2967 9.85789 61.3179 9.86318C61.3196 9.86362 61.3214 9.86403 61.3232 9.86447C61.3249 9.86491 61.3267 9.86538 61.3285 9.86582C61.3303 9.86626 61.332 9.86674 61.3338 9.86718C61.3355 9.86761 61.3373 9.86802 61.3391 9.86846C61.3555 9.87258 61.3332 9.86698 61.3497 9.8711C61.3615 9.87405 61.3485 9.87086 61.3603 9.8738C61.362 9.87424 61.3638 9.87465 61.3656 9.87509C61.3673 9.87553 61.3691 9.876 61.3709 9.87644C61.3897 9.88115 61.3627 9.87437 61.3815 9.87908L61.3921 9.88172C61.3944 9.88231 61.4003 9.88383 61.4027 9.88442C61.4045 9.88486 61.4063 9.88527 61.408 9.88571C61.4098 9.88615 61.4116 9.88662 61.4133 9.88706C61.4227 9.88942 61.4145 9.88735 61.4239 9.8897C61.4257 9.89014 61.4275 9.89061 61.4293 9.89105C61.431 9.89149 61.4328 9.8919 61.4346 9.89234C61.4463 9.89529 61.4334 9.8921 61.4452 9.89504C61.4546 9.8974 61.4464 9.89532 61.4559 9.89768C61.4576 9.89812 61.4594 9.89853 61.4611 9.89897C61.4629 9.89941 61.4647 9.89987 61.4665 9.90032C61.4682 9.90076 61.47 9.90123 61.4717 9.90167C61.4735 9.90211 61.4753 9.90251 61.4771 9.90296C61.4983 9.90827 61.4664 9.90034 61.4877 9.90566C61.4924 9.90684 61.4936 9.90712 61.4983 9.9083C61.5001 9.90874 61.5019 9.90921 61.5037 9.90965C61.5054 9.91009 61.5072 9.9105 61.5089 9.91094L61.5196 9.91364C61.5314 9.91658 61.5184 9.91332 61.5302 9.91628C61.532 9.91672 61.5338 9.91718 61.5356 9.91763C61.5373 9.91807 61.5391 9.91848 61.5409 9.91891C61.5551 9.92246 61.5374 9.91807 61.5515 9.92162L61.5728 9.9269L61.5835 9.9296C61.5882 9.93078 61.5894 9.93106 61.5941 9.93224C61.5959 9.93268 61.5977 9.93314 61.5994 9.93359C61.6012 9.93403 61.603 9.93443 61.6048 9.93487C61.619 9.93842 61.6012 9.93404 61.6154 9.93758C61.6172 9.93802 61.619 9.93842 61.6207 9.93886L61.6368 9.94292C61.6385 9.94336 61.6403 9.94377 61.642 9.94421C61.6438 9.94465 61.6456 9.94511 61.6474 9.94556C61.6711 9.95148 61.6344 9.94227 61.6581 9.9482L61.6741 9.95225C61.6758 9.95269 61.6776 9.9531 61.6794 9.95354C61.6936 9.95709 61.6758 9.95269 61.69 9.95624C61.7043 9.9598 61.6865 9.95532 61.7007 9.95888L61.7114 9.96158C61.7256 9.96513 61.7079 9.96066 61.7221 9.96422C61.7268 9.9654 61.728 9.96574 61.7327 9.96692C61.7374 9.96811 61.7387 9.96838 61.7434 9.96956C61.7481 9.97075 61.7493 9.97108 61.7541 9.97226C61.7588 9.97345 61.76 9.97372 61.7647 9.9749C61.7665 9.97535 61.7683 9.97581 61.7701 9.97625C61.7719 9.9767 61.7737 9.9771 61.7754 9.97754L61.7968 9.98295C61.7986 9.98339 61.8004 9.98379 61.8021 9.98423C61.8039 9.98468 61.8057 9.98514 61.8075 9.98559L61.8129 9.98694C61.8147 9.98738 61.8165 9.98785 61.8182 9.98829C61.8419 9.99421 61.8052 9.98499 61.8289 9.99093C61.8337 9.99211 61.8348 9.99244 61.8396 9.99363C61.8414 9.99407 61.8432 9.99447 61.8449 9.99492L61.861 9.99897C61.8752 10.0025 61.8574 9.99804 61.8717 10.0016L61.8824 10.0043C61.8966 10.0079 61.8788 10.0034 61.8931 10.007C61.8978 10.0081 61.8991 10.0085 61.9038 10.0097C61.9086 10.0108 61.9097 10.0112 61.9145 10.0124C61.9163 10.0128 61.9181 10.0132 61.9198 10.0136C61.9216 10.0141 61.9234 10.0146 61.9252 10.015C61.9299 10.0162 61.9312 10.0165 61.9359 10.0177L61.9466 10.0204C61.9609 10.024 61.9431 10.0195 61.9574 10.023C61.9591 10.0235 61.9609 10.0239 61.9627 10.0244L61.9681 10.0257C61.9699 10.0262 61.9717 10.0266 61.9734 10.0271C61.9752 10.0275 61.977 10.0279 61.9788 10.0284C61.9806 10.0288 61.9824 10.0293 61.9841 10.0297L61.9895 10.0311C62.0133 10.037 61.9764 10.0278 62.0002 10.0338C62.005 10.035 62.0062 10.0352 62.011 10.0364C62.0127 10.0369 62.0145 10.0373 62.0163 10.0378L62.0217 10.0391C62.036 10.0427 62.0181 10.0383 62.0324 10.0418C62.0467 10.0454 62.0289 10.0409 62.0431 10.0445L62.0485 10.0458C62.0503 10.0463 62.0521 10.0467 62.0539 10.0472L62.0754 10.0526C62.0801 10.0538 62.0814 10.054 62.0861 10.0552C62.0909 10.0564 62.0921 10.0567 62.0968 10.0579C62.1016 10.0591 62.1028 10.0594 62.1076 10.0606L62.113 10.062C62.1147 10.0624 62.1165 10.0629 62.1183 10.0633C62.1326 10.0669 62.1148 10.0624 62.1291 10.066C62.1482 10.0707 62.1207 10.0639 62.1398 10.0687L62.1506 10.0714C62.1524 10.0718 62.1542 10.0723 62.156 10.0727L62.1614 10.0741C62.1852 10.08 62.1482 10.0707 62.1721 10.0767C62.1769 10.0779 62.1781 10.0782 62.1829 10.0794L62.1883 10.0808C62.19 10.0812 62.1918 10.0817 62.1936 10.0821L62.199 10.0835C62.2008 10.0839 62.2026 10.0844 62.2043 10.0848C62.2187 10.0884 62.2008 10.0839 62.2152 10.0875C62.2169 10.088 62.2187 10.0884 62.2205 10.0888L62.2259 10.0902C62.2403 10.0937 62.2223 10.0893 62.2367 10.0929L62.2475 10.0956C62.2522 10.0968 62.2534 10.0971 62.2582 10.0983L62.2636 10.0996C62.2654 10.1001 62.2672 10.1005 62.269 10.101L62.2798 10.1037C62.2816 10.1041 62.2833 10.1046 62.2851 10.105C62.2869 10.1055 62.2887 10.1059 62.2905 10.1063C62.3049 10.1099 62.287 10.1054 62.3013 10.109C62.3031 10.1095 62.3049 10.1099 62.3067 10.1104L62.3283 10.1158C62.3301 10.1162 62.3319 10.1167 62.3336 10.1171L62.3553 10.1225C62.357 10.123 62.3588 10.1234 62.3606 10.1239L62.3984 10.1333C62.4128 10.1369 62.3948 10.1325 62.4092 10.136C62.414 10.1372 62.4152 10.1375 62.42 10.1387L62.5335 10.1671C62.5353 10.1675 62.5371 10.168 62.5389 10.1685L62.5443 10.1698C62.5461 10.1703 62.548 10.1707 62.5498 10.1712L62.5822 10.1793C62.587 10.1805 62.5883 10.1808 62.5931 10.182L62.6147 10.1874C62.6195 10.1886 62.6208 10.1889 62.6256 10.1901L62.6364 10.1928C62.6509 10.1964 62.6328 10.1919 62.6473 10.1955L62.6581 10.1982C62.6599 10.1987 62.6617 10.1992 62.6635 10.1996C62.6653 10.2001 62.6672 10.2005 62.669 10.201L62.6798 10.2037C62.7039 10.2097 62.6666 10.2004 62.6907 10.2064L62.7015 10.2091C62.7033 10.2095 62.7051 10.21 62.7069 10.2104L62.7124 10.2118C62.7268 10.2154 62.7088 10.2109 62.7232 10.2145C62.7377 10.2181 62.7196 10.2136 62.7341 10.2173L62.7449 10.22L62.7667 10.2254L62.7721 10.2267C62.7739 10.2272 62.7757 10.2276 62.7775 10.2281C62.78 10.2287 62.786 10.2302 62.7884 10.2308L62.7992 10.2335C62.801 10.234 62.8029 10.2344 62.8047 10.2349L62.8101 10.2362C62.8198 10.2387 62.8114 10.2365 62.821 10.2389C62.8379 10.2432 62.815 10.2375 62.8319 10.2417C62.8337 10.2422 62.8355 10.2426 62.8373 10.2431L62.8427 10.2444C62.8445 10.2449 62.8464 10.2453 62.8482 10.2458L62.8536 10.2471C62.873 10.252 62.8452 10.245 62.8645 10.2498C62.867 10.2504 62.873 10.252 62.8754 10.2526L62.8808 10.2539C62.8826 10.2544 62.8845 10.2548 62.8863 10.2553L62.8917 10.2566C62.8935 10.2571 62.8954 10.2575 62.8972 10.258C62.9068 10.2604 62.8984 10.2583 62.9081 10.2607C62.9099 10.2611 62.9117 10.2617 62.9135 10.2621L62.9189 10.2635C62.9359 10.2677 62.9129 10.2619 62.9299 10.2662C62.9395 10.2686 62.9311 10.2665 62.9407 10.2689C62.9426 10.2693 62.9444 10.2698 62.9462 10.2703L62.9516 10.2716L62.9626 10.2743C62.9698 10.2761 62.9662 10.2752 62.9734 10.277C62.9753 10.2775 62.9771 10.278 62.9789 10.2785L62.9843 10.2798L63.0007 10.2839C63.0025 10.2843 63.0043 10.2848 63.0061 10.2853L63.0225 10.2893L63.0279 10.2907C63.0498 10.2961 63.0171 10.288 63.0389 10.2935C63.0413 10.2941 63.0474 10.2955 63.0498 10.2962L63.0552 10.2975C63.057 10.298 63.0589 10.2984 63.0607 10.2989C63.0777 10.3031 63.0547 10.2974 63.0716 10.3016C63.0838 10.3047 63.0704 10.3013 63.0826 10.3043C63.0844 10.3048 63.0862 10.3053 63.088 10.3057L63.1044 10.3098C63.1117 10.3116 63.1081 10.3107 63.1153 10.3126C63.1178 10.3132 63.1239 10.3147 63.1263 10.3153C63.1287 10.3159 63.1347 10.3174 63.1371 10.318L63.159 10.3234C63.1712 10.3265 63.1578 10.3232 63.17 10.3262C63.187 10.3305 63.1639 10.3247 63.1809 10.3289C63.1827 10.3294 63.1846 10.3299 63.1864 10.3303L63.2028 10.3344L63.2247 10.3399L63.2356 10.3426C63.2374 10.3431 63.2393 10.3435 63.2411 10.344C63.243 10.3444 63.2448 10.3449 63.2466 10.3454L63.263 10.3494C63.2649 10.3499 63.2667 10.3504 63.2685 10.3509C63.2855 10.3551 63.2624 10.3493 63.2794 10.3536C63.2867 10.3554 63.2831 10.3545 63.2904 10.3563C63.2929 10.3569 63.299 10.3584 63.3014 10.359C63.3032 10.3595 63.305 10.36 63.3069 10.3604C63.3087 10.3609 63.3105 10.3613 63.3123 10.3618C63.3196 10.3636 63.316 10.3627 63.3233 10.3646L63.3343 10.3673C63.3464 10.3703 63.333 10.367 63.3452 10.37C63.347 10.3705 63.3489 10.3709 63.3507 10.3714C63.3526 10.3718 63.3544 10.3723 63.3562 10.3727C63.358 10.3732 63.3599 10.3737 63.3617 10.3742C63.3635 10.3746 63.3653 10.375 63.3671 10.3755C63.369 10.376 63.3709 10.3764 63.3727 10.3769C63.3745 10.3773 63.3763 10.3778 63.3782 10.3783C63.4001 10.3837 63.3672 10.3755 63.3891 10.381C63.3915 10.3816 63.3977 10.3831 63.4001 10.3837C63.4019 10.3842 63.4037 10.3846 63.4056 10.3851C63.4074 10.3855 63.4093 10.386 63.4111 10.3865C63.4281 10.3908 63.405 10.3849 63.422 10.3892C63.4342 10.3923 63.4208 10.3889 63.433 10.392C63.4349 10.3924 63.4367 10.3929 63.4385 10.3933C63.4403 10.3938 63.4422 10.3943 63.4441 10.3947C63.4611 10.399 63.438 10.3932 63.455 10.3974L63.477 10.403C63.4795 10.4036 63.4856 10.4051 63.488 10.4057C63.4953 10.4075 63.4917 10.4066 63.499 10.4085C63.5008 10.4089 63.5027 10.4093 63.5045 10.4098C63.5063 10.4103 63.5081 10.4108 63.5099 10.4112C63.5222 10.4143 63.5088 10.4109 63.521 10.414C63.5381 10.4183 63.5149 10.4124 63.532 10.4167C63.5338 10.4171 63.5357 10.4176 63.5375 10.4181C63.5393 10.4186 63.5411 10.419 63.543 10.4195C63.5448 10.4199 63.5467 10.4203 63.5485 10.4208C63.5503 10.4213 63.5521 10.4218 63.554 10.4222C63.576 10.4277 63.543 10.4194 63.565 10.4249C63.5674 10.4255 63.5735 10.4271 63.576 10.4277C63.5778 10.4282 63.5797 10.4286 63.5815 10.4291C63.5833 10.4296 63.5852 10.43 63.587 10.4305C63.5888 10.4309 63.5907 10.4314 63.5925 10.4318C63.5943 10.4323 63.5962 10.4328 63.598 10.4332C63.6102 10.4363 63.5968 10.4329 63.6091 10.436C63.6109 10.4365 63.6127 10.4369 63.6145 10.4373C63.6164 10.4378 63.6182 10.4382 63.6201 10.4387L63.6421 10.4442L63.6531 10.447C63.655 10.4475 63.6568 10.4479 63.6586 10.4483C63.6604 10.4488 63.6623 10.4493 63.6641 10.4498C63.6715 10.4516 63.6678 10.4507 63.6751 10.4525L63.6862 10.4552C63.6984 10.4583 63.685 10.4549 63.6972 10.458C63.6991 10.4585 63.7009 10.459 63.7028 10.4594C63.7046 10.4599 63.7065 10.4603 63.7083 10.4608C63.7101 10.4612 63.7119 10.4617 63.7138 10.4621C63.7156 10.4626 63.7175 10.4631 63.7193 10.4635C63.7211 10.464 63.723 10.4644 63.7248 10.4649C63.7267 10.4653 63.7285 10.4658 63.7303 10.4663L63.7524 10.4718C63.7543 10.4723 63.7561 10.4727 63.7579 10.4732C63.7597 10.4736 63.7616 10.4741 63.7634 10.4745C63.7806 10.4788 63.7573 10.473 63.7745 10.4773C63.7868 10.4804 63.7733 10.477 63.7855 10.4801C63.7873 10.4805 63.7892 10.481 63.791 10.4815C63.7929 10.482 63.7947 10.4824 63.7966 10.4828L63.8187 10.4884C63.8212 10.489 63.8273 10.4905 63.8297 10.4911L63.8519 10.4967C63.8537 10.4971 63.8556 10.4976 63.8574 10.498C63.8592 10.4985 63.8611 10.499 63.8629 10.4994H63.8629C64.8233 10.7369 65.752 10.996 66.6487 11.2769H66.6487C67.5575 11.5476 68.4141 11.8565 69.218 12.2038C70.0434 12.545 70.7656 12.9494 71.3813 13.4192H71.3813C72.0113 13.8917 72.5131 14.4366 72.8806 15.0555L72.9165 15.1154C73.2816 15.7383 73.4598 16.4492 73.4598 17.2383C73.4598 18.1058 73.2963 18.882 72.9584 19.5576L72.9574 19.5597C72.6259 20.2113 72.1741 20.777 71.6047 21.2553L71.6043 21.2557C71.0501 21.7194 70.3986 22.1057 69.6536 22.4171L69.6524 22.4176L69.6513 22.4181C68.9235 22.7158 68.1428 22.952 67.3099 23.1273L67.3098 23.1273C66.4915 23.3018 65.6418 23.4216 64.7608 23.4871L64.7609 23.4871C63.8936 23.563 63.0367 23.601 62.1903 23.601C60.2548 23.601 58.4922 23.4604 56.9038 23.1776L56.9034 23.1775C55.3327 22.8959 53.8311 22.5111 52.3988 22.0228L52.1756 21.9467V18.6696L52.6737 18.9663C54.101 19.8164 55.605 20.3978 57.1867 20.712H57.1866C58.7942 21.0293 60.4833 21.1884 62.2546 21.1884V21.5178C60.4634 21.5178 58.7527 21.357 57.1224 21.0352C55.5029 20.7134 53.9637 20.1182 52.5051 19.2494V21.7109C53.9208 22.1936 55.4063 22.5743 56.9615 22.8532C58.5275 23.132 60.2704 23.2715 62.1903 23.2715C63.0268 23.2715 63.8742 23.2339 64.7322 23.1588C65.601 23.0945 66.4376 22.9765 67.242 22.8049C68.0571 22.6333 68.8187 22.4027 69.5265 22.1131C70.2452 21.8128 70.8672 21.4428 71.3928 21.003C71.9291 20.5525 72.3527 20.0216 72.6638 19.4103C72.9748 18.7882 73.1303 18.0642 73.1303 17.2383Z" fill="white"/>
<path d="M28.6458 13.3771V22.8371H26.6348V0.731689H37.6392C39.3231 0.731689 40.7657 0.865759 41.967 1.1339C43.1682 1.39131 44.1496 1.78816 44.9111 2.32444C45.6834 2.84999 46.2465 3.50961 46.6004 4.3033C46.9543 5.09699 47.1313 6.02476 47.1313 7.08659C47.1313 8.73832 46.6969 10.0629 45.8282 11.0604C44.9594 12.0472 43.5597 12.7229 41.6291 13.0875L49.1745 22.8371H46.6487L39.5215 13.3128C39.2212 13.3342 38.9155 13.3503 38.6045 13.361C38.2935 13.3718 37.9717 13.3771 37.6392 13.3771H28.6458ZM45.0559 7.08659C45.0559 6.14274 44.8897 5.38122 44.5572 4.80204C44.2247 4.21213 43.683 3.7563 42.9323 3.43453C42.1815 3.11276 41.1947 2.89825 39.972 2.791C38.76 2.67302 37.2692 2.61403 35.4994 2.61403H28.6458V11.4948H35.4351C37.2048 11.4948 38.701 11.4465 39.9237 11.35C41.1465 11.2427 42.1386 11.0336 42.9001 10.7226C43.6616 10.4008 44.2086 9.95567 44.5411 9.38722C44.8843 8.80804 45.0559 8.04116 45.0559 7.08659Z" fill="white"/>
<path d="M47.1317 7.08648C47.1317 6.02465 46.9547 5.09689 46.6008 4.3032C46.2468 3.50951 45.6838 2.84989 44.9115 2.32433C44.15 1.78806 43.1686 1.39121 41.9673 1.1338C40.7661 0.865658 39.3235 0.731589 37.6396 0.731589V0.4021C39.3395 0.4021 40.8075 0.537307 42.0391 0.812224C43.2672 1.07566 44.2907 1.48536 45.0969 2.05193C45.9158 2.60924 46.521 3.31523 46.9017 4.16902C47.2782 5.01323 47.4612 5.98844 47.4612 7.08648C47.4612 8.79729 47.0101 10.2054 46.077 11.2767L46.0759 11.278C45.2244 12.2451 43.9224 12.9101 42.2124 13.3022L49.8466 23.1665H46.4841L39.3653 13.6534C39.119 13.6692 38.8693 13.6815 38.6162 13.6902C38.3011 13.7011 37.9756 13.7065 37.6396 13.7065H28.9757V23.1665H26.3057V0.4021H37.6396V0.731589H26.6352V22.837H28.6462V13.377H37.6396C37.9721 13.377 38.2938 13.3717 38.6049 13.3609C38.9159 13.3502 39.2216 13.3341 39.5219 13.3127L46.6491 22.837H49.1749L41.6295 13.0874C43.5601 12.7228 44.9598 12.0471 45.8285 11.0603C46.6973 10.0628 47.1317 8.73822 47.1317 7.08648ZM44.7268 7.08648C44.7268 6.17769 44.5662 5.47879 44.2718 4.96598L44.2712 4.96488L44.2706 4.96372C43.9804 4.449 43.5013 4.0366 42.8028 3.73728C42.096 3.43434 41.1472 3.22468 39.9436 3.1191L39.942 3.11897L39.9405 3.11884C38.7427 3.00224 37.2632 2.94341 35.4998 2.94341H28.9757V11.1652H35.4355V11.4947H28.6462V2.61393H35.4998C37.2695 2.61393 38.7604 2.67292 39.9724 2.7909C41.1951 2.89815 42.1819 3.11266 42.9326 3.43443C43.6834 3.7562 44.2251 4.21203 44.5576 4.80194C44.8901 5.38112 45.0563 6.14264 45.0563 7.08648C45.0563 8.04106 44.8847 8.80794 44.5415 9.38712C44.209 9.95557 43.662 10.4007 42.9005 10.7225C42.139 11.0335 41.1468 11.2426 39.9241 11.3499C38.7014 11.4464 37.2052 11.4947 35.4355 11.4947V11.1652C37.2 11.1652 38.687 11.1171 39.8982 11.0214C41.1005 10.9158 42.0555 10.7114 42.7746 10.4179C43.4862 10.1167 43.9691 9.71312 44.257 9.22077L44.2576 9.21993L44.258 9.21916C44.5611 8.70776 44.7268 8.00537 44.7268 7.08648Z" fill="white"/>
<path d="M11.6402 2.61403C10.0206 2.61403 8.6263 2.72664 7.45721 2.95188C6.28813 3.16639 5.32283 3.50425 4.56131 3.96545C3.81052 4.42665 3.25279 5.01655 2.88812 5.73516C2.52346 6.45378 2.34112 7.31182 2.34112 8.3093V10.7708H21.2288V12.6532H2.34112V22.8371H0.330078V7.97144C0.330078 6.83454 0.528501 5.81561 0.925347 4.91466C1.33292 4.01371 1.97645 3.25756 2.85595 2.6462C3.73544 2.02412 4.86163 1.5522 6.2345 1.23043C7.6181 0.897936 9.28592 0.731689 11.238 0.731689H21.5506V2.61403H11.6402Z" fill="white"/>
<path d="M21.2282 12.6531V10.7707H2.34053V8.3092C2.34053 7.31172 2.52287 6.45368 2.88754 5.73506C3.25221 5.01645 3.80993 4.42655 4.56072 3.96535C5.32224 3.50415 6.28754 3.16629 7.45663 2.95178C8.62571 2.72654 10.02 2.61393 11.6396 2.61393H21.55V0.731589H11.2374V0.4021H21.8795V2.94341H11.6396C10.034 2.94341 8.66169 3.0552 7.51898 3.27535L7.5175 3.27561L7.51609 3.27586C6.37487 3.48526 5.45085 3.81176 4.73313 4.24606C4.02917 4.67849 3.51597 5.22482 3.18137 5.88417C2.84507 6.54689 2.67002 7.35145 2.67002 8.3092V10.4412H21.5577V12.9825H2.67002V23.1665H0V7.97134C0 6.79574 0.20528 5.73052 0.623198 4.78173L0.623906 4.78025L0.62455 4.77877C1.05833 3.8199 1.74204 3.01924 2.66507 2.3771L2.75233 2.31636C3.63207 1.71403 4.72722 1.25811 6.02798 0.940802L6.15875 0.909526C7.57455 0.569499 9.2691 0.4021 11.2374 0.4021V0.731589C9.28533 0.731589 7.61751 0.897835 6.23391 1.23033C4.86104 1.55209 3.73486 2.02402 2.85536 2.6461C1.97586 3.25746 1.33233 4.01361 0.924758 4.91456C0.527912 5.81551 0.329489 6.83443 0.329489 7.97134V22.837H2.34053V12.6531H21.2282Z" fill="white"/>
</svg>
